<svg width="54" height="57" viewBox="0 0 54 57" fill="none" xmlns="http://www.w3.org/2000/svg">
<g clip-path="url(#clip0_550_1434)">
<path d="M44.6415 30.9008H41.451C40.566 24.4518 40.329 17.9863 39.801 11.4522H45.9645C45.525 17.9386 45.0855 24.3981 44.6415 30.9008Z" fill="#232323"/>
<path d="M47.313 9.44829H38.463C36.4725 6.89075 37.5345 4.06761 38.997 2.7023C40.9725 0.858002 44.097 0.743109 46.092 2.36806C47.8725 3.82738 48.9225 6.6535 47.313 9.44829Z" fill="#232323"/>
<path d="M38.9565 39.6702C37.695 39.6702 36.5055 39.6553 35.4405 39.2718C33.9285 38.7257 33.0405 37.5335 32.8575 35.8235C32.7075 34.3522 32.694 27.7554 32.823 7.0922C32.8365 5.02408 32.6295 4.69133 32.3115 4.2795C32.091 4.10343 31.098 3.62147 29.046 3.43345C21.621 2.75453 17.724 4.79429 16.0785 7.5846C14.7045 9.91235 15.1965 11.8074 16.6575 13.868C18.051 15.8332 19.5615 16.4226 21.498 17.7342C22.9155 18.6951 24.0345 19.0055 24.6855 19.8053C25.728 21.0885 24.8355 22.9149 23.709 24.698C22.845 26.0663 21.699 27.0855 20.004 29.1879L19.704 29.5535C18.933 30.5159 19.494 31.2187 18.5475 32.4214C17.8155 33.354 16.8645 34.8088 16.17 35.6907C15.834 36.1219 14.52 37.5544 14.22 37.9468C14.025 38.1975 13.386 37.0948 13.209 37.3246C12.7665 37.8901 12.3855 38.381 12.0915 38.757C11.7495 39.2047 11.1045 39.4031 10.689 39.0301L10.2795 38.7033C10.0909 38.535 9.97696 38.2992 9.96263 38.0476C9.94829 37.7959 10.0347 37.5488 10.203 37.3604C10.64 36.871 11.0765 36.3691 11.5125 35.8548C11.7105 35.622 10.5585 35.0908 10.7625 34.8551C11.037 34.5268 12.8115 32.1065 13.083 31.7738C13.779 30.9248 14.004 30.7099 14.67 29.8534C15.5775 28.6865 16.458 28.973 17.262 27.8748C19.827 24.3668 21.576 22.3315 21.912 21.4496C21.4095 21.0139 20.562 20.8841 19.7265 20.3216C17.5785 18.8667 15.807 18.1013 14.085 15.672C11.8875 12.5714 11.346 9.41547 13.3635 5.99547C17.5455 -1.09223 26.2125 0.0268809 29.3355 0.310389C31.9905 0.553609 33.972 1.28625 34.776 2.3218C35.721 3.54089 35.991 4.61524 35.976 7.10861C35.8005 35.0595 35.931 34.8834 35.994 35.4982C36.072 36.2443 36.102 36.5337 39.084 36.5337H39.249C41.1375 36.5337 41.199 35.9369 41.2485 35.5161C41.328 34.7909 41.3745 34.0926 41.3985 33.5599C41.4124 33.3001 41.5272 33.0559 41.7186 32.8786C41.9099 32.7013 42.163 32.6048 42.4245 32.6094L43.5555 32.6273C43.691 32.6297 43.8247 32.6592 43.9485 32.7141C44.0723 32.7689 44.1838 32.848 44.2763 32.9465C44.3688 33.0451 44.4404 33.1611 44.4869 33.2878C44.5334 33.4144 44.5539 33.5491 44.547 33.6837C44.517 34.2657 44.466 35.0386 44.3775 35.8533C44.2275 37.2768 43.35 39.6673 39.246 39.6673H38.9565V39.6702Z" fill="#232323"/>
<path d="M2.37149 53.8217C2.38152 53.9615 2.36124 54.1017 2.31202 54.233C2.2628 54.3642 2.18579 54.4834 2.08621 54.5825C1.98664 54.6815 1.86682 54.7581 1.73488 54.8071C1.60293 54.856 1.46195 54.8762 1.32149 54.8662H1.14149C1.00102 54.8762 0.860039 54.856 0.728097 54.8071C0.596154 54.7581 0.476335 54.6815 0.376757 54.5825C0.27718 54.4834 0.200172 54.3642 0.150953 54.233C0.101734 54.1017 0.0814532 53.9615 0.0914859 53.8217V45.4508C0.0814532 45.3111 0.101734 45.1708 0.150953 45.0396C0.200172 44.9083 0.27718 44.7891 0.376757 44.6901C0.476335 44.591 0.596154 44.5144 0.728097 44.4655C0.860039 44.4165 1.00102 44.3963 1.14149 44.4063H4.19999C4.93543 44.387 5.66937 44.4826 6.37499 44.6898C6.87517 44.8408 7.33773 45.095 7.73249 45.4359C8.05053 45.7208 8.29273 46.0797 8.43748 46.4804C8.70749 47.2279 8.70749 48.0457 8.43748 48.7932C8.29326 49.1899 8.05078 49.544 7.73249 49.8228C7.3368 50.1606 6.87437 50.4122 6.37499 50.5614C5.66953 50.7693 4.93547 50.865 4.19999 50.8449H2.36999L2.37149 53.8217ZM2.37149 49.211H4.19999C4.56921 49.2212 4.93799 49.1785 5.29499 49.0842C5.53908 49.0191 5.76488 48.8991 5.95498 48.7335C6.10663 48.5965 6.21809 48.4212 6.27749 48.2262C6.33278 48.032 6.36054 47.8311 6.35998 47.6293C6.36013 47.4251 6.33237 47.2218 6.27749 47.025C6.22032 46.829 6.1085 46.6531 5.95498 46.5177C5.7619 46.3564 5.53711 46.237 5.29499 46.167C4.93889 46.0676 4.56971 46.0223 4.19999 46.0327H2.36999L2.37149 49.211Z" fill="#232323"/>
<path d="M12 54.1948C11.9218 54.3916 11.7859 54.5606 11.61 54.6797C11.4346 54.803 11.2247 54.8682 11.01 54.8662H10.545C10.185 54.8662 9.93151 54.7648 9.78751 54.5604C9.64351 54.3559 9.63751 54.0858 9.76501 53.7471L13.02 45.0927C13.0995 44.8946 13.235 44.7235 13.41 44.6003C13.5839 44.4733 13.7943 44.4053 14.01 44.4063H15.285C15.5011 44.4032 15.712 44.4715 15.885 44.6003C16.0558 44.7261 16.1882 44.8965 16.2675 45.0927L19.5375 53.7471C19.6665 54.0854 19.659 54.3564 19.515 54.5604C19.371 54.7643 19.116 54.8662 18.75 54.8662H18.27C18.0574 54.8694 17.8496 54.8039 17.6775 54.6797C17.5045 54.5594 17.3714 54.3906 17.295 54.1948L16.65 52.5087H12.63L12 54.1948ZM13.32 50.6733H15.975L14.64 47.1668L13.32 50.6733Z" fill="#232323"/>
<path d="M22.7115 55.9256C22.7215 56.0654 22.7013 56.2056 22.652 56.3369C22.6028 56.4681 22.5258 56.5873 22.4262 56.6864C22.3267 56.7854 22.2068 56.862 22.0749 56.911C21.943 56.9599 21.802 56.9801 21.6615 56.9701H21.4815C21.341 56.9801 21.2001 56.9599 21.0681 56.911C20.9362 56.862 20.8164 56.7854 20.7168 56.6864C20.6172 56.5873 20.5402 56.4681 20.491 56.3369C20.4418 56.2056 20.4215 56.0654 20.4315 55.9256L20.4615 53.4188C20.4542 53.3682 20.4589 53.3165 20.4752 53.2679C20.4915 53.2194 20.5189 53.1753 20.5553 53.1391C20.5917 53.1029 20.636 53.0756 20.6848 53.0594C20.7336 53.0432 20.7856 53.0386 20.8365 53.0458H21.2115C21.321 53.0458 21.4155 53.0458 21.4965 53.0458C21.5787 53.0404 21.6596 53.0228 21.7365 52.9936C21.8439 52.9212 21.9254 52.8167 21.969 52.6951C22.0528 52.5123 22.1206 52.3226 22.1715 52.1281C22.221 51.9192 22.263 51.7178 22.299 51.5313C22.335 51.3447 22.3605 51.2015 22.3815 51.1209L23.4465 45.2866C23.4878 45.0418 23.6155 44.8196 23.8065 44.6599C23.9949 44.5014 24.2348 44.4166 24.4815 44.4212H29.0565C29.197 44.4112 29.338 44.4314 29.4699 44.4803C29.6018 44.5293 29.7217 44.6059 29.8212 44.705C29.9208 44.804 29.9978 44.9232 30.047 45.0545C30.0963 45.1857 30.1165 45.326 30.1065 45.4657V53.0607H30.8115C30.9047 53.0569 30.9977 53.0714 31.0852 53.1034C31.1727 53.1354 31.253 53.1843 31.3215 53.2472C31.387 53.3126 31.4382 53.3908 31.4717 53.4768C31.5053 53.5629 31.5205 53.6549 31.5165 53.7471V55.9406C31.5265 56.0803 31.5063 56.2205 31.457 56.3518C31.4078 56.483 31.3308 56.6022 31.2312 56.7013C31.1317 56.8003 31.0118 56.8769 30.8799 56.9259C30.748 56.9749 30.607 56.995 30.4665 56.9851H30.2715C30.131 56.995 29.9901 56.9749 29.8581 56.9259C29.7262 56.8769 29.6064 56.8003 29.5068 56.7013C29.4072 56.6022 29.3302 56.483 29.281 56.3518C29.2318 56.2205 29.2115 56.0803 29.2215 55.9406V54.8811H22.7115V55.9256ZM24.6315 51.4193C24.5805 51.6979 24.5305 51.9714 24.4815 52.24C24.4325 52.5086 24.365 52.7772 24.279 53.0458H27.834V46.2416H25.599L24.6315 51.4193Z" fill="#232323"/>
<path d="M35.535 54.3589C35.4334 54.5103 35.2972 54.6356 35.1375 54.7245C34.9817 54.8198 34.8029 54.8714 34.62 54.8737H33.69C33.5495 54.8837 33.4086 54.8635 33.2766 54.8146C33.1447 54.7656 33.0249 54.689 32.9253 54.5899C32.8257 54.4909 32.7487 54.3717 32.6995 54.2404C32.6503 54.1092 32.63 53.9689 32.64 53.8292V45.4508C32.63 45.3111 32.6503 45.1708 32.6995 45.0396C32.7487 44.9083 32.8257 44.7891 32.9253 44.6901C33.0249 44.591 33.1447 44.5144 33.2766 44.4655C33.4086 44.4165 33.5495 44.3963 33.69 44.4063H33.87C34.0105 44.3963 34.1515 44.4165 34.2834 44.4655C34.4153 44.5144 34.5352 44.591 34.6347 44.6901C34.7343 44.7891 34.8113 44.9083 34.8605 45.0396C34.9098 45.1708 34.93 45.3111 34.92 45.4508V51.3448L38.76 44.9285C38.8514 44.7711 38.9825 44.6401 39.1403 44.5485C39.2981 44.4569 39.4773 44.4079 39.66 44.4063H40.605C40.7455 44.3963 40.8865 44.4165 41.0184 44.4655C41.1503 44.5144 41.2702 44.591 41.3697 44.6901C41.4693 44.7891 41.5463 44.9083 41.5955 45.0396C41.6448 45.1708 41.665 45.3111 41.655 45.4508V53.8217C41.665 53.9615 41.6448 54.1017 41.5955 54.233C41.5463 54.3642 41.4693 54.4834 41.3697 54.5825C41.2702 54.6815 41.1503 54.7581 41.0184 54.8071C40.8865 54.856 40.7455 54.8762 40.605 54.8662H40.41C40.2695 54.8762 40.1286 54.856 39.9966 54.8071C39.8647 54.7581 39.7449 54.6815 39.6453 54.5825C39.5457 54.4834 39.4687 54.3642 39.4195 54.233C39.3703 54.1017 39.35 53.9615 39.36 53.8217V47.9427L35.535 54.3589Z" fill="#232323"/>
<path d="M53.97 49.6437C53.9677 49.9877 53.9477 50.3313 53.91 50.6733C53.8675 51.0784 53.7846 51.4783 53.6625 51.867C53.5325 52.2868 53.3485 52.688 53.115 53.0607C52.864 53.4615 52.5412 53.813 52.1625 54.0978C51.7242 54.4243 51.2318 54.6718 50.7075 54.8289C50.0384 55.026 49.3427 55.1191 48.645 55.105C47.9449 55.1185 47.2468 55.0254 46.575 54.8289C46.0483 54.6721 45.5533 54.4246 45.1125 54.0978C44.7353 53.8137 44.4148 53.462 44.1675 53.0607C43.9393 52.6862 43.758 52.2853 43.6275 51.867C43.5068 51.4779 43.4239 51.0782 43.38 50.6733C43.341 50.2853 43.32 49.9422 43.32 49.6437C43.32 49.3453 43.341 48.9872 43.38 48.5992C43.423 48.1942 43.5059 47.7944 43.6275 47.4055C43.7587 46.9875 43.94 46.5867 44.1675 46.2118C44.4152 45.8109 44.7357 45.4592 45.1125 45.1747C45.554 44.849 46.0488 44.6017 46.575 44.4436C47.2468 44.2471 47.9449 44.154 48.645 44.1675C49.3439 44.1607 50.0396 44.2614 50.7075 44.466C51.2313 44.6244 51.7235 44.8717 52.1625 45.1971C52.5408 45.4823 52.8636 45.8337 53.115 46.2342C53.3479 46.6072 53.5319 47.0084 53.6625 47.4279C53.7855 47.8164 53.8684 48.2164 53.91 48.6216C53.9472 48.9611 53.9672 49.3022 53.97 49.6437ZM45.6 49.6437C45.608 49.9937 45.6406 50.3427 45.6975 50.6882C45.7659 51.1302 45.9052 51.5585 46.11 51.9566C46.3286 52.3796 46.6447 52.7452 47.0325 53.0234C47.4375 53.3219 47.975 53.4711 48.645 53.4711C49.0428 53.4814 49.4385 53.4103 49.8075 53.2622C50.115 53.1349 50.3951 52.95 50.6325 52.7175C50.8553 52.4968 51.038 52.2393 51.1725 51.9566C51.3037 51.6833 51.4092 51.3986 51.4875 51.106C51.56 50.8395 51.6102 50.5675 51.6375 50.2928C51.663 50.0347 51.675 49.8153 51.675 49.6363C51.675 49.4572 51.663 49.2364 51.6375 48.9723C51.6104 48.695 51.5603 48.4205 51.4875 48.1516C51.4099 47.8612 51.3044 47.5789 51.1725 47.3085C51.0364 47.0289 50.8538 46.7742 50.6325 46.555C50.3948 46.323 50.1148 46.1382 49.8075 46.0103C49.0578 45.7318 48.2322 45.7318 47.4825 46.0103C47.1755 46.1385 46.8955 46.3233 46.6575 46.555C46.4358 46.7755 46.2509 47.0299 46.11 47.3085C45.9739 47.5778 45.8658 47.8603 45.7875 48.1516C45.7155 48.4207 45.6653 48.6951 45.6375 48.9723C45.6135 49.2408 45.6 49.4647 45.6 49.6437Z" fill="#232323"/>
</g>
<defs>
<clipPath id="clip0_550_1434">
<rect width="54" height="57" fill="white"/>
</clipPath>
</defs>
</svg>
