<svg width="28" height="29" viewBox="0 0 28 29" fill="none" xmlns="http://www.w3.org/2000/svg">
<path d="M6.10919 27.0417C8.32335 27.0417 10.1183 25.2135 10.1183 22.9583C10.1183 20.7032 8.32335 18.875 6.10919 18.875C3.89503 18.875 2.1001 20.7032 2.1001 22.9583C2.1001 25.2135 3.89503 27.0417 6.10919 27.0417Z" fill="#808080" stroke="#808080" stroke-width="1.5" stroke-linecap="round" stroke-linejoin="round"/>
<path d="M22.2093 25.6418C24.4234 25.6418 26.2184 23.8136 26.2184 21.5584C26.2184 19.3033 24.4234 17.4751 22.2093 17.4751C19.9951 17.4751 18.2002 19.3033 18.2002 21.5584C18.2002 23.8136 19.9951 25.6418 22.2093 25.6418Z" fill="#808080" stroke="#808080" stroke-width="1.5" stroke-linecap="round" stroke-linejoin="round"/>
<path d="M24.9299 1.375L8.89355 5.45833V10.9028L24.9299 6.81944V1.375Z" fill="#808080"/>
<path d="M10.1504 11.3564L26.1868 7.27306M10.1504 22.2453V11.3564V22.2453ZM26.1868 20.8842V7.27306V20.8842ZM10.1504 11.3564V5.91195L26.1868 1.82861V7.27306L10.1504 11.3564Z" stroke="#808080" stroke-width="1.5" stroke-linecap="round" stroke-linejoin="round"/>
</svg>
