<svg width="20" height="21" viewBox="0 0 20 21" fill="none" xmlns="http://www.w3.org/2000/svg">
<path d="M6.61647 2.54469C6.38213 2.7791 6.25049 3.09699 6.25049 3.42844C6.25049 3.7599 6.38213 4.07778 6.61647 4.31219L12.804 10.4997L6.61647 16.6872C6.38877 16.9229 6.26278 17.2387 6.26563 17.5664C6.26848 17.8942 6.39994 18.2077 6.6317 18.4395C6.86346 18.6712 7.17697 18.8027 7.50472 18.8055C7.83247 18.8084 8.14822 18.6824 8.38397 18.4547L15.4552 11.3834C15.6896 11.149 15.8212 10.8311 15.8212 10.4997C15.8212 10.1682 15.6896 9.85035 15.4552 9.61594L8.38397 2.54469C8.14956 2.31036 7.83168 2.17871 7.50022 2.17871C7.16877 2.17871 6.85088 2.31036 6.61647 2.54469Z" fill="#232323"/>
</svg>
