<svg width="10" height="17" viewBox="0 0 10 17" fill="none" xmlns="http://www.w3.org/2000/svg">
<path d="M9.38353 0.544694C9.61787 0.779104 9.74951 1.09699 9.74951 1.42844C9.74951 1.7599 9.61787 2.07778 9.38353 2.31219L3.19603 8.49969L9.38353 14.6872C9.61123 14.9229 9.73722 15.2387 9.73437 15.5664C9.73152 15.8942 9.60006 16.2077 9.3683 16.4395C9.13654 16.6712 8.82303 16.8027 8.49528 16.8055C8.16753 16.8084 7.85178 16.6824 7.61603 16.4547L0.544779 9.38344C0.31044 9.14903 0.178796 8.83115 0.178796 8.49969C0.178796 8.16824 0.31044 7.85035 0.544779 7.61594L7.61603 0.544694C7.85044 0.310355 8.16832 0.178711 8.49978 0.178711C8.83123 0.178711 9.14912 0.310355 9.38353 0.544694Z" fill="#232323"/>
</svg>
