<svg width="26" height="21" viewBox="0 0 26 21" fill="none" xmlns="http://www.w3.org/2000/svg">
<path d="M1 10H17.3333M1 19H13.8333M1 1H22" stroke="black" stroke-width="2" stroke-linecap="round" stroke-linejoin="round"/>
<path d="M22.3333 17.5835C22.3333 18.0476 22.1489 18.4927 21.8207 18.8209C21.4925 19.1491 21.0474 19.3335 20.5833 19.3335C20.1191 19.3335 19.674 19.1491 19.3458 18.8209C19.0176 18.4927 18.8333 18.0476 18.8333 17.5835C18.8333 17.1194 19.0176 16.6742 19.3458 16.3461C19.674 16.0179 20.1191 15.8335 20.5833 15.8335C21.0474 15.8335 21.4925 16.0179 21.8207 16.3461C22.1489 16.6742 22.3333 17.1194 22.3333 17.5835Z" fill="black"/>
<path d="M22.3333 17.5834V8.36675C22.3333 8.1811 22.407 8.00305 22.5383 7.87177C22.6696 7.7405 22.8476 7.66675 23.0333 7.66675H24.6666M22.3333 17.5834C22.3333 18.0475 22.1489 18.4927 21.8207 18.8209C21.4925 19.149 21.0474 19.3334 20.5833 19.3334C20.1191 19.3334 19.674 19.149 19.3458 18.8209C19.0176 18.4927 18.8333 18.0475 18.8333 17.5834C18.8333 17.1193 19.0176 16.6742 19.3458 16.346C19.674 16.0178 20.1191 15.8334 20.5833 15.8334C21.0474 15.8334 21.4925 16.0178 21.8207 16.346C22.1489 16.6742 22.3333 17.1193 22.3333 17.5834Z" stroke="black" stroke-width="1.75" stroke-linecap="round"/>
</svg>
